<svg id="svg" width="100%" height="249.94903160040775" viewBox="0, 0, 400,249.94903160040775" class="css-9vsoxh"><path id="path0" d="M1.348 0.262 C 1.080 0.371,0.962 0.724,1.086 1.046 C 1.224 1.405,1.057 1.631,0.655 1.631 C 0.295 1.631,0.000 1.825,0.000 2.063 C 0.000 2.300,0.170 2.389,0.378 2.261 C 0.587 2.132,0.878 2.410,1.027 2.878 C 1.186 3.379,1.527 3.640,1.859 3.513 C 2.402 3.305,2.968 3.844,3.098 4.695 C 3.135 4.936,2.501 5.046,1.581 4.958 C -0.021 4.805,-0.440 5.244,0.534 6.052 C 1.100 6.522,44.414 6.766,43.945 6.296 C 43.812 6.164,43.850 5.543,44.030 4.917 C 44.209 4.291,44.203 3.531,44.016 3.228 C 43.816 2.905,43.877 2.434,44.162 2.088 C 44.540 1.629,44.535 1.460,44.136 1.326 C 43.854 1.231,43.728 0.986,43.854 0.781 C 44.335 0.003,44.825 0.462,45.091 1.937 C 45.242 2.778,45.528 3.671,45.726 3.921 C 45.923 4.172,46.037 4.814,45.978 5.348 L 45.872 6.320 222.936 6.421 L 400.000 6.522 400.000 4.446 C 400.000 2.713,399.865 2.335,399.185 2.157 C 398.736 2.040,398.369 1.618,398.369 1.219 C 398.369 0.821,398.079 0.384,397.724 0.247 C 396.692 -0.148,372.816 -0.031,373.444 0.367 C 373.752 0.562,373.922 0.966,373.822 1.265 C 373.691 1.658,373.426 1.558,372.866 0.905 L 372.092 0.000 186.963 0.032 C 85.143 0.050,1.616 0.153,1.348 0.262 M71.206 4.033 C 71.795 3.544,72.719 3.930,72.358 4.513 C 71.973 5.136,70.679 4.945,70.100 4.179 C 69.644 3.577,69.648 3.544,70.122 3.966 C 70.523 4.322,70.834 4.342,71.206 4.033 M5.733 10.468 C 3.220 10.729,1.714 11.911,1.134 14.079 C 0.873 15.055,0.511 15.762,0.330 15.650 C 0.148 15.538,0.000 15.641,0.000 15.878 C 0.000 16.116,0.138 16.310,0.306 16.310 C 0.474 16.310,0.662 18.741,0.723 21.713 C 0.855 28.111,0.870 28.135,4.991 28.135 C 10.532 28.135,10.718 28.480,10.534 38.453 C 10.459 42.533,10.562 51.560,10.762 58.512 C 11.305 77.320,10.266 81.269,4.488 82.364 C 1.566 82.919,0.505 83.674,0.174 85.437 C -0.206 87.463,0.608 97.815,1.193 98.400 C 1.840 99.047,27.073 99.084,27.718 98.439 C 28.234 97.923,28.379 89.431,27.932 85.929 C 27.577 83.148,26.134 81.590,23.822 81.488 C 23.054 81.455,22.197 81.409,21.916 81.386 C 20.992 81.312,20.349 79.958,20.401 78.192 C 20.429 77.235,20.489 66.453,20.535 54.230 C 20.624 30.336,20.528 31.354,22.908 29.065 L 24.272 27.754 30.504 27.539 C 40.798 27.184,42.966 29.624,43.169 41.794 C 43.214 44.485,43.356 47.283,43.485 48.012 L 43.720 49.337 46.261 49.337 C 49.802 49.337,50.280 48.767,49.704 45.239 C 49.468 43.793,49.330 41.233,49.398 39.551 C 49.472 37.711,49.327 36.149,49.034 35.627 C 48.631 34.909,48.674 34.648,49.285 34.095 C 50.128 33.331,50.591 25.369,49.762 25.882 C 49.473 26.060,49.468 25.805,49.746 25.073 C 50.273 23.687,50.263 15.882,49.733 15.087 C 49.447 14.657,49.404 14.991,49.588 16.208 C 49.764 17.377,49.700 17.941,49.390 17.941 C 49.124 17.941,48.930 17.242,48.930 16.286 C 48.930 15.376,48.765 14.732,48.565 14.856 C 47.980 15.218,47.695 13.948,48.137 12.946 C 48.506 12.108,48.522 12.125,48.320 13.150 C 48.195 13.784,48.279 14.271,48.514 14.271 C 48.743 14.271,48.930 13.454,48.930 12.454 L 48.930 10.637 32.926 10.618 C 24.123 10.607,14.811 10.527,12.232 10.440 C 9.653 10.352,6.729 10.365,5.733 10.468 M61.162 10.581 C 55.914 10.767,54.652 10.934,53.721 11.566 L 52.599 12.326 52.599 19.425 L 52.599 26.524 53.645 26.921 C 54.221 27.140,55.572 27.319,56.648 27.319 C 61.146 27.319,61.020 26.621,61.629 54.911 C 62.223 82.463,62.358 81.808,55.835 82.981 C 53.515 83.399,53.391 83.596,53.363 86.882 C 53.349 88.547,53.151 91.811,52.923 94.138 C 52.588 97.565,52.612 98.431,53.054 98.703 C 53.763 99.142,78.600 98.691,79.846 98.217 L 80.799 97.855 80.675 90.485 C 80.538 82.332,80.646 82.604,77.603 82.727 C 71.428 82.977,69.582 76.587,71.189 60.526 L 71.395 58.463 73.745 57.978 C 75.037 57.711,77.403 57.492,79.003 57.492 L 81.912 57.492 83.794 59.802 C 87.616 64.494,87.700 64.868,88.076 78.899 C 88.257 85.631,88.594 91.374,88.859 92.233 C 90.190 96.551,97.981 99.406,102.342 97.172 C 107.825 94.363,109.521 88.002,108.520 74.006 L 108.257 70.336 106.422 70.336 L 104.587 70.336 104.383 74.822 C 104.162 79.688,103.724 80.947,102.030 81.592 C 99.100 82.705,98.370 81.014,97.877 71.967 C 97.444 64.036,96.629 62.184,91.402 57.258 L 88.774 54.781 90.973 53.540 C 99.172 48.913,102.057 35.053,97.608 21.665 C 94.014 10.850,89.791 9.565,61.162 10.581 M129.256 10.484 C 120.318 11.287,112.910 19.013,112.334 28.135 C 112.256 29.368,112.049 30.744,111.873 31.193 C 111.364 32.497,111.588 56.270,112.123 57.677 C 112.343 58.255,112.320 58.771,112.063 59.027 C 111.802 59.288,111.727 61.317,111.860 64.482 C 111.976 67.253,112.113 72.256,112.164 75.599 C 112.259 81.809,112.946 86.517,113.922 87.646 C 114.223 87.993,114.462 88.554,114.455 88.891 C 114.426 90.184,119.216 96.841,119.881 96.430 C 120.072 96.312,120.727 96.677,121.336 97.241 C 121.945 97.805,122.738 98.270,123.097 98.273 C 123.457 98.276,124.210 98.383,124.771 98.512 C 125.358 98.647,125.598 98.601,125.336 98.404 C 125.081 98.213,125.007 97.712,125.168 97.263 C 125.429 96.532,125.477 96.553,125.714 97.497 C 125.925 98.339,126.224 98.535,127.309 98.544 C 128.043 98.550,129.103 98.701,129.664 98.879 C 130.224 99.057,130.548 99.056,130.383 98.877 C 130.219 98.698,130.561 98.304,131.144 98.001 C 132.595 97.248,132.772 97.310,131.906 98.267 C 131.488 98.730,131.372 99.083,131.639 99.083 C 131.898 99.083,132.110 98.920,132.110 98.722 C 132.110 98.214,133.693 97.859,133.969 98.305 C 134.094 98.509,134.564 98.675,135.012 98.675 C 135.507 98.675,135.718 98.496,135.548 98.221 C 135.394 97.972,135.520 97.608,135.830 97.412 C 136.649 96.893,137.003 96.964,137.003 97.647 C 137.003 98.134,137.190 98.165,137.973 97.808 C 138.643 97.502,138.881 97.127,138.741 96.593 C 138.514 95.724,139.041 95.575,139.768 96.302 C 141.147 97.681,147.045 89.400,145.949 87.625 C 145.769 87.335,145.802 86.764,146.020 86.355 C 146.239 85.946,146.513 83.918,146.628 81.848 C 146.744 79.777,146.916 77.350,147.009 76.453 C 147.103 75.556,147.252 73.878,147.341 72.725 C 147.430 71.571,147.622 70.434,147.768 70.198 C 147.914 69.961,148.132 65.951,148.251 61.286 C 148.371 56.620,148.528 51.978,148.602 50.968 C 148.676 49.959,148.932 46.656,149.172 43.629 C 150.933 21.398,143.602 9.197,129.256 10.484 M153.654 10.489 C 152.241 10.638,152.138 10.750,151.744 12.561 C 151.147 15.303,150.849 24.570,151.304 26.220 L 151.690 27.616 155.457 27.977 L 159.225 28.338 160.242 30.377 L 161.258 32.416 161.203 44.107 C 161.172 50.537,161.053 55.951,160.937 56.139 C 160.821 56.327,160.866 57.245,161.037 58.181 C 161.208 59.116,161.199 60.122,161.017 60.416 C 160.835 60.711,160.794 61.381,160.926 61.906 C 161.292 63.365,161.308 73.802,160.944 73.802 C 160.768 73.802,160.814 74.158,161.047 74.593 C 161.605 75.637,160.544 79.800,159.438 80.906 C 158.828 81.517,157.679 81.812,154.649 82.139 L 150.663 82.569 150.541 90.360 L 150.420 98.150 152.281 98.671 C 154.654 99.336,176.946 98.827,177.681 98.092 C 177.825 97.948,178.312 85.764,178.251 83.829 C 178.217 82.754,177.478 82.381,175.331 82.357 C 169.907 82.295,169.827 81.772,170.609 51.529 L 170.642 50.254 171.499 51.178 C 171.970 51.687,172.458 52.352,172.583 52.657 C 173.012 53.703,183.486 69.087,183.501 68.692 C 183.509 68.475,183.963 69.221,184.510 70.350 C 185.056 71.478,185.835 72.763,186.241 73.204 C 186.646 73.645,187.420 74.740,187.960 75.637 C 188.500 76.534,189.183 77.651,189.479 78.119 C 189.939 78.846,189.913 79.094,189.300 79.818 C 187.011 82.524,187.156 81.798,187.156 90.525 C 187.156 97.994,187.216 98.679,187.870 98.731 C 190.908 98.968,201.832 98.806,201.834 98.523 C 201.834 98.327,202.113 98.398,202.454 98.681 C 203.087 99.206,207.722 99.040,208.289 98.472 C 208.859 97.900,208.511 91.772,207.867 91.033 C 207.523 90.639,206.749 89.032,206.146 87.462 C 205.543 85.892,204.863 84.122,204.633 83.528 C 204.301 82.666,203.863 82.395,202.461 82.185 C 199.179 81.692,198.606 79.853,198.803 70.447 C 198.876 66.990,198.767 64.340,198.546 64.204 C 198.309 64.057,198.318 63.677,198.569 63.209 C 198.859 62.667,198.830 62.399,198.468 62.268 C 198.064 62.121,198.064 61.909,198.468 61.226 C 198.846 60.585,198.964 56.981,198.934 47.003 C 198.912 39.653,198.933 33.456,198.982 33.231 C 199.031 33.007,199.039 32.421,199.000 31.928 C 198.807 29.515,200.946 28.159,205.912 27.544 L 209.378 27.115 209.472 19.776 C 209.599 9.897,211.200 10.955,195.734 10.695 C 179.909 10.430,181.448 9.565,181.448 18.729 L 181.448 25.506 182.713 26.617 C 183.409 27.227,184.366 27.727,184.840 27.727 C 187.665 27.727,190.920 30.478,190.061 32.140 C 189.568 33.095,189.780 38.669,190.331 39.220 C 190.663 39.552,190.623 39.984,190.181 40.839 C 189.726 41.719,189.686 42.208,190.018 42.829 C 190.485 43.701,190.477 48.177,190.008 48.522 C 189.482 48.908,189.192 51.376,189.672 51.376 C 189.992 51.376,190.053 52.287,189.874 54.407 C 189.630 57.291,189.660 57.444,190.495 57.567 C 191.727 57.748,191.950 58.718,190.758 58.708 C 189.993 58.701,189.047 57.576,185.937 52.974 C 181.120 45.846,181.172 45.896,179.370 46.630 C 178.607 46.941,177.248 47.304,176.351 47.438 C 175.454 47.571,174.995 47.570,175.331 47.436 C 175.668 47.302,176.283 46.895,176.699 46.532 C 177.115 46.169,177.482 45.944,177.515 46.033 C 177.547 46.122,177.997 46.061,178.514 45.897 C 179.882 45.462,179.380 44.668,177.644 44.522 C 176.712 44.443,176.147 44.185,176.147 43.838 C 176.147 43.532,175.826 43.197,175.433 43.095 C 174.986 42.978,175.130 42.890,175.821 42.861 C 176.477 42.833,177.089 43.101,177.337 43.527 C 177.726 44.194,177.754 44.194,177.765 43.540 C 177.774 43.054,177.987 42.919,178.460 43.101 C 179.440 43.477,179.046 42.647,176.246 38.438 C 171.043 30.618,171.170 30.882,171.851 29.251 C 172.357 28.040,172.717 27.758,174.040 27.534 L 175.624 27.267 175.685 18.934 L 175.745 10.601 174.703 10.601 C 174.116 10.601,173.249 11.046,172.717 11.621 C 172.197 12.181,171.561 12.640,171.303 12.640 C 171.046 12.640,170.465 12.870,170.013 13.150 C 169.011 13.771,168.304 12.959,168.649 11.585 C 168.942 10.418,160.303 9.786,153.654 10.489 M211.621 11.718 C 211.621 12.449,211.804 13.048,212.029 13.048 C 212.253 13.048,212.436 13.231,212.436 13.456 C 212.436 13.680,212.161 13.863,211.825 13.863 C 211.153 13.863,211.006 27.532,211.559 38.465 C 211.705 41.344,211.750 43.773,211.659 43.864 C 211.568 43.954,211.469 44.973,211.439 46.128 C 211.373 48.678,212.739 49.587,215.923 49.109 C 218.119 48.780,218.052 48.997,218.331 41.386 L 218.555 35.270 220.215 31.885 C 222.088 28.066,222.268 27.945,226.723 27.527 L 229.766 27.242 230.314 29.217 C 230.910 31.371,231.012 50.584,230.528 69.799 L 230.275 79.864 229.078 81.012 C 228.052 81.996,227.458 82.190,224.951 82.365 L 222.021 82.569 221.529 85.219 C 220.748 89.427,220.838 97.626,221.673 98.319 C 222.720 99.188,247.779 99.139,248.318 98.267 C 248.526 97.931,248.696 95.364,248.697 92.563 C 248.697 89.414,248.858 87.418,249.119 87.331 C 249.351 87.253,249.541 87.002,249.541 86.773 C 249.541 86.543,249.266 86.461,248.930 86.590 C 248.500 86.755,248.316 86.555,248.312 85.920 C 248.296 83.286,245.714 80.928,243.172 81.225 C 240.940 81.485,240.842 80.995,240.949 70.145 C 241.182 46.570,241.086 37.251,240.601 36.345 C 239.554 34.389,241.540 29.933,244.036 28.640 C 250.112 25.492,253.878 30.601,254.137 42.344 C 254.210 45.638,254.409 48.559,254.580 48.835 C 255.026 49.557,259.904 49.504,260.513 48.771 C 261.045 48.130,260.948 44.789,260.386 44.382 C 260.167 44.223,260.184 42.896,260.426 41.120 C 260.760 38.675,260.719 37.809,260.204 36.411 C 259.618 34.820,259.625 34.640,260.303 33.891 C 260.916 33.214,261.026 32.379,260.989 28.673 C 260.966 26.246,261.060 22.743,261.200 20.888 C 261.459 17.431,261.186 14.679,260.582 14.679 C 260.396 14.679,260.340 15.538,260.458 16.587 C 260.650 18.287,260.605 18.432,260.049 17.912 C 259.633 17.524,259.530 17.053,259.740 16.499 C 260.055 15.672,259.284 14.042,258.805 14.522 C 258.674 14.653,258.667 14.377,258.790 13.908 C 258.912 13.440,259.155 13.145,259.330 13.254 C 259.704 13.485,260.263 11.533,259.962 11.047 C 259.695 10.614,227.396 10.578,225.895 11.008 C 225.183 11.213,224.585 11.170,224.310 10.895 C 224.035 10.620,221.553 10.441,217.744 10.421 L 211.621 10.388 211.621 11.718 M265.600 10.483 L 263.921 10.643 263.666 12.763 C 263.221 16.470,263.343 17.851,264.165 18.427 C 264.584 18.721,265.060 19.570,265.224 20.315 C 266.268 25.072,268.466 27.710,271.396 27.725 C 272.770 27.732,273.290 30.802,273.306 39.015 C 273.315 44.067,273.478 47.198,273.739 47.370 C 274.019 47.553,273.999 47.836,273.679 48.221 C 273.341 48.628,273.202 51.777,273.206 58.955 C 273.209 64.542,273.213 71.292,273.215 73.955 C 273.220 80.726,272.723 81.364,267.004 81.941 C 262.324 82.412,262.410 82.262,262.265 90.228 C 262.099 99.392,261.008 98.844,279.812 99.047 L 290.307 99.160 290.650 98.204 C 290.839 97.678,290.979 94.284,290.961 90.661 L 290.928 84.074 289.785 83.016 C 289.157 82.434,288.439 81.957,288.190 81.957 C 284.391 81.957,281.916 79.511,282.371 76.206 C 282.556 74.858,282.500 74.210,282.196 74.210 C 281.882 74.210,281.893 73.975,282.234 73.429 C 282.616 72.818,282.606 72.295,282.187 71.026 C 281.892 70.134,281.798 69.167,281.977 68.877 C 282.831 67.495,282.638 51.784,281.767 51.784 C 281.311 51.784,280.938 51.600,280.938 51.376 C 280.938 51.152,281.273 50.968,281.684 50.968 C 282.386 50.968,282.429 50.381,282.431 40.877 C 282.433 27.788,283.125 26.442,289.554 27.025 C 292.818 27.321,292.800 27.363,292.742 19.361 L 292.693 12.541 291.606 11.577 C 290.522 10.616,290.503 10.614,279.918 10.643 C 274.088 10.658,268.858 10.593,268.298 10.497 C 267.737 10.401,266.523 10.395,265.600 10.483 M299.898 10.498 C 296.259 10.682,294.414 12.135,294.361 14.861 C 294.344 15.770,294.237 16.284,294.123 16.004 C 294.010 15.724,293.750 15.494,293.544 15.494 C 293.017 15.494,293.078 16.871,293.630 17.422 C 293.926 17.718,294.070 19.551,294.032 22.546 C 293.963 28.003,293.911 27.926,297.814 28.272 C 303.030 28.736,303.936 30.124,303.837 37.501 C 303.800 40.298,303.674 42.886,303.558 43.252 C 303.442 43.619,303.532 44.358,303.759 44.895 C 304.156 45.834,304.169 45.824,304.078 44.648 C 304.017 43.855,304.162 43.461,304.490 43.527 C 304.768 43.583,304.995 43.359,304.995 43.030 C 304.995 42.701,305.234 42.523,305.527 42.636 C 305.820 42.748,306.784 42.315,307.669 41.674 L 309.279 40.507 310.002 42.020 C 310.399 42.852,311.219 44.059,311.824 44.702 L 312.924 45.872 313.303 44.119 C 313.542 43.015,313.529 40.754,313.270 38.015 C 312.775 32.797,313.061 31.485,315.149 29.397 L 316.688 27.859 322.349 27.807 C 332.239 27.718,334.889 31.032,334.670 43.221 C 334.620 46.024,334.722 48.547,334.897 48.828 C 335.327 49.515,340.224 49.515,340.785 48.828 C 341.307 48.189,341.267 44.037,340.740 44.037 C 340.502 44.037,340.468 42.968,340.651 41.284 C 341.050 37.625,340.994 36.798,340.273 35.770 C 339.724 34.985,339.742 34.821,340.458 34.058 C 341.619 32.823,341.918 12.075,340.787 11.247 C 339.693 10.446,311.235 9.925,299.898 10.498 M352.674 10.473 C 346.445 10.619,346.303 10.642,345.046 11.733 L 343.766 12.844 344.014 19.707 C 344.296 27.536,344.177 27.319,348.222 27.319 C 352.611 27.319,353.328 33.075,353.029 65.924 C 352.881 82.063,353.157 81.159,347.904 82.749 L 344.615 83.744 344.573 88.661 C 344.550 91.365,344.370 94.587,344.172 95.821 C 343.629 99.209,343.443 99.140,352.456 98.906 C 356.740 98.795,362.527 98.678,365.316 98.646 C 372.669 98.561,372.129 99.214,371.974 90.605 C 371.825 82.349,372.001 82.750,368.490 82.647 C 363.245 82.493,362.282 80.329,362.287 68.705 C 362.292 57.502,362.299 57.492,370.346 57.492 L 373.059 57.492 375.180 60.041 C 378.900 64.510,378.917 64.582,379.241 77.929 C 379.614 93.285,379.988 94.610,384.511 96.576 C 394.899 101.093,399.997 95.474,399.991 79.511 C 399.988 69.937,400.019 70.058,397.603 70.214 L 395.719 70.336 395.858 73.888 C 396.062 79.099,394.711 81.957,392.044 81.957 C 390.204 81.957,389.594 79.764,389.208 71.764 C 388.863 64.614,388.061 62.620,383.830 58.389 C 379.788 54.348,379.920 55.068,382.885 53.237 C 389.678 49.045,392.290 39.173,390.046 26.175 C 387.506 11.461,383.444 9.754,352.674 10.473 M373.912 27.731 C 376.910 29.260,380.335 34.793,380.397 38.206 C 380.565 47.495,372.754 53.457,363.469 51.126 C 361.634 50.666,361.691 30.956,363.534 28.920 C 365.060 27.233,371.710 25.464,372.209 26.612 C 372.286 26.789,373.052 27.292,373.912 27.731 M82.032 27.357 C 82.952 27.827,84.183 28.778,84.768 29.471 C 86.741 31.810,88.481 34.448,88.481 35.099 C 88.481 35.455,88.616 35.881,88.781 36.046 C 91.655 38.920,86.184 49.309,81.017 50.789 C 78.159 51.608,72.334 51.676,71.559 50.900 C 70.858 50.198,70.394 41.883,70.871 38.584 C 71.137 36.738,71.356 33.939,71.356 32.364 C 71.356 27.411,76.974 24.777,82.032 27.357 M133.333 29.561 C 136.239 31.064,137.546 34.438,138.268 42.304 C 138.540 45.275,138.940 47.706,139.156 47.706 C 139.378 47.706,139.352 47.945,139.095 48.254 C 138.845 48.555,138.743 48.903,138.868 49.028 C 139.272 49.432,139.115 69.023,138.685 71.938 C 138.455 73.491,138.373 74.934,138.503 75.143 C 138.633 75.353,138.556 75.642,138.332 75.785 C 138.108 75.928,137.439 77.010,136.844 78.189 C 135.787 80.284,133.476 82.402,131.343 83.231 C 129.175 84.074,123.708 79.686,122.632 76.242 C 122.354 75.349,121.993 74.618,121.830 74.618 C 121.667 74.618,121.640 74.343,121.769 74.006 C 121.918 73.617,121.762 73.394,121.339 73.394 C 120.729 73.394,120.731 73.308,121.357 72.353 C 122.013 71.352,122.005 71.303,121.162 71.082 C 120.123 70.810,120.115 70.772,120.874 69.608 C 121.453 68.721,121.470 67.322,120.917 65.994 C 120.763 65.625,120.834 65.201,121.073 65.053 C 121.313 64.905,121.509 64.600,121.509 64.376 C 121.509 64.152,121.346 64.069,121.147 64.192 C 120.949 64.314,120.694 64.062,120.581 63.630 C 120.461 63.171,120.618 62.753,120.960 62.622 C 121.412 62.448,121.444 62.212,121.104 61.576 C 120.786 60.981,120.790 60.754,121.119 60.754 C 121.414 60.754,121.477 60.315,121.298 59.499 C 120.820 57.325,120.790 56.257,121.199 56.004 C 121.432 55.860,121.368 55.615,121.043 55.409 C 120.692 55.187,120.663 55.056,120.963 55.052 C 121.456 55.046,121.479 54.341,121.009 53.590 C 120.461 52.715,120.333 50.986,120.824 51.080 C 121.147 51.142,121.317 50.369,121.343 48.726 C 121.363 47.380,121.522 45.956,121.694 45.561 C 121.874 45.147,121.806 44.599,121.533 44.270 C 121.158 43.818,121.218 43.647,121.822 43.455 C 122.422 43.265,122.703 42.491,123.131 39.853 C 124.485 31.502,128.755 27.194,133.333 29.561 M30.591 41.794 C 30.406 42.018,30.033 43.670,29.763 45.464 C 28.927 51.021,27.635 52.465,23.845 52.073 C 22.622 51.947,21.517 52.014,21.388 52.222 C 21.260 52.429,21.349 52.599,21.587 52.599 C 21.824 52.599,22.018 52.868,22.018 53.197 C 22.018 53.900,23.489 54.785,24.066 54.429 C 24.285 54.293,24.465 54.468,24.465 54.818 C 24.465 55.182,24.814 55.454,25.280 55.454 C 25.729 55.454,26.096 55.625,26.096 55.836 C 26.096 56.046,26.692 56.291,27.421 56.382 C 28.150 56.472,27.222 56.576,25.358 56.612 C 23.219 56.653,22.063 56.827,22.222 57.085 C 22.361 57.309,22.166 57.492,21.789 57.492 C 21.250 57.492,21.204 57.614,21.572 58.058 C 21.930 58.489,22.430 58.536,23.666 58.259 C 27.273 57.448,29.375 59.850,29.957 65.443 C 30.329 69.020,30.580 69.317,33.230 69.317 C 35.303 69.317,35.380 69.276,35.627 68.043 C 35.961 66.373,35.953 53.816,35.615 46.748 L 35.347 41.176 33.138 41.281 C 31.923 41.339,30.777 41.570,30.591 41.794 M323.547 41.670 C 322.293 42.381,322.133 42.821,322.127 45.571 C 322.123 46.976,321.898 48.481,321.626 48.917 C 320.992 49.932,321.322 50.234,323.065 50.234 C 324.226 50.234,324.676 50.511,325.641 51.815 C 327.568 54.421,327.829 54.028,327.829 48.516 C 327.829 41.832,326.633 39.920,323.547 41.670 M144.056 46.525 C 143.733 46.848,143.392 46.851,142.853 46.538 C 142.193 46.154,142.248 46.099,143.303 46.088 C 144.180 46.079,144.384 46.197,144.056 46.525 M318.756 54.145 C 318.364 54.225,318.043 54.420,318.043 54.578 C 318.043 54.737,317.118 55.225,315.988 55.664 C 314.271 56.330,314.038 56.537,314.571 56.927 C 315.126 57.333,315.091 57.423,314.298 57.630 C 312.679 58.054,313.954 58.500,316.432 58.378 C 320.078 58.197,322.109 61.070,322.127 66.435 C 322.135 68.899,322.336 69.093,325.028 69.231 C 327.678 69.367,327.869 69.009,327.503 64.587 C 327.325 62.444,327.263 62.336,326.349 62.566 C 325.805 62.702,325.382 62.627,325.382 62.393 C 325.382 62.165,325.085 61.978,324.721 61.978 C 324.204 61.978,324.161 62.101,324.527 62.542 C 324.886 62.974,324.862 63.157,324.424 63.325 C 324.110 63.445,323.859 63.329,323.866 63.067 C 323.929 60.843,323.687 59.973,322.936 59.735 C 322.310 59.536,322.120 59.118,322.120 57.933 C 322.120 54.470,321.360 53.614,318.756 54.145 M335.415 61.508 C 335.311 61.878,334.998 65.463,334.719 69.474 C 333.929 80.869,332.502 82.431,322.627 82.714 C 313.101 82.986,313.007 82.865,313.111 70.452 C 313.162 64.343,313.046 61.162,312.772 61.162 C 312.246 61.162,311.055 63.417,311.399 63.761 C 311.540 63.901,311.427 64.016,311.149 64.016 C 310.871 64.016,310.708 64.337,310.787 64.730 C 310.866 65.122,310.501 65.787,309.977 66.206 C 309.452 66.626,309.120 67.222,309.239 67.531 C 309.357 67.841,309.277 68.094,309.060 68.094 C 308.842 68.094,308.665 67.727,308.665 67.278 C 308.665 66.215,308.411 66.248,306.723 67.536 L 305.316 68.610 304.354 67.434 L 303.393 66.259 303.361 68.094 C 303.343 69.103,303.290 71.947,303.243 74.414 C 303.115 81.021,302.112 82.365,297.310 82.365 C 296.020 82.365,294.744 82.585,294.475 82.854 C 293.788 83.542,293.783 98.093,294.470 98.518 C 296.050 99.495,317.109 99.288,320.619 98.261 C 321.839 97.904,322.316 97.922,322.821 98.342 C 323.757 99.120,339.036 99.319,340.469 98.572 L 341.488 98.040 341.734 80.926 C 341.992 62.971,341.948 61.792,341.030 62.144 C 340.722 62.263,340.469 62.194,340.469 61.992 C 340.469 61.014,335.684 60.555,335.415 61.508 M279.715 67.074 C 279.715 67.411,279.531 67.686,279.307 67.686 C 279.083 67.686,278.899 67.411,278.899 67.074 C 278.899 66.738,279.083 66.463,279.307 66.463 C 279.531 66.463,279.715 66.738,279.715 67.074 M286.466 83.958 C 286.340 84.161,285.871 84.231,285.423 84.114 C 284.301 83.821,284.402 83.588,285.651 83.588 C 286.225 83.588,286.592 83.754,286.466 83.958 M131.180 89.067 C 131.542 90.245,131.504 90.509,130.943 90.724 C 130.051 91.066,129.846 90.981,129.979 90.324 C 130.046 89.997,129.574 89.660,128.816 89.494 L 127.542 89.214 128.705 88.469 C 130.362 87.409,130.696 87.489,131.180 89.067 M130.819 92.101 C 131.226 92.358,131.123 92.510,130.412 92.700 C 128.948 93.092,128.704 93.020,129.256 92.355 C 129.836 91.656,130.060 91.619,130.819 92.101 M274.561 94.393 C 274.724 94.817,274.534 95.005,273.943 95.005 C 273.232 95.005,273.175 94.904,273.598 94.393 C 273.878 94.057,274.156 93.782,274.216 93.782 C 274.277 93.782,274.432 94.057,274.561 94.393 M132.926 103.023 C 127.042 103.553,110.907 109.667,110.907 111.367 C 110.907 111.512,109.562 112.982,107.917 114.633 C 103.638 118.930,102.287 121.831,101.897 127.564 C 101.735 129.952,101.494 132.181,101.362 132.518 C 100.750 134.077,100.402 140.443,100.884 141.262 C 101.175 141.756,101.366 143.564,101.351 145.668 C 101.330 148.514,101.444 149.235,101.913 149.235 C 102.330 149.235,102.273 149.402,101.714 149.811 C 100.943 150.375,100.942 150.428,101.682 152.605 C 102.316 154.471,102.354 154.980,101.916 155.799 C 101.338 156.878,101.374 161.401,101.966 162.115 C 102.170 162.361,102.245 162.655,102.131 162.769 C 101.360 163.540,101.492 168.807,102.283 168.807 C 102.739 168.807,103.209 168.964,103.328 169.156 C 103.446 169.348,103.085 169.418,102.526 169.311 C 101.636 169.140,101.506 169.263,101.486 170.287 C 101.377 175.878,101.284 177.339,101.019 177.606 C 100.166 178.465,101.025 187.292,102.130 189.014 C 102.508 189.604,102.548 190.069,102.262 190.579 C 100.908 193.000,106.428 202.871,111.218 206.589 C 116.212 210.467,133.913 214.163,139.000 212.390 C 139.948 212.059,140.430 212.066,140.849 212.413 C 141.172 212.681,141.515 212.724,141.645 212.512 C 141.829 212.216,145.103 211.081,145.973 211.013 C 146.086 211.004,146.407 210.851,146.687 210.673 C 146.967 210.495,147.197 210.462,147.197 210.600 C 147.197 210.739,147.605 210.566,148.103 210.217 C 148.601 209.868,149.292 209.582,149.638 209.582 C 149.984 209.582,150.990 209.194,151.874 208.721 C 154.757 207.175,159.429 209.093,159.429 211.821 C 159.429 212.596,159.779 212.717,162.793 212.985 C 164.719 213.156,165.138 213.081,165.138 212.567 C 165.138 212.178,165.369 212.030,165.749 212.176 C 166.086 212.305,166.361 212.233,166.361 212.016 C 166.361 211.799,166.682 211.615,167.074 211.608 C 167.714 211.596,167.705 211.532,166.981 210.985 C 166.312 210.480,166.261 210.256,166.677 209.673 C 167.800 208.099,167.950 206.787,168.139 196.879 C 168.248 191.195,168.537 183.884,168.783 180.632 C 169.293 173.874,169.013 168.670,168.099 167.911 C 167.471 167.390,163.681 167.340,160.174 167.806 L 158.268 168.060 158.498 169.555 C 158.624 170.377,158.882 171.248,159.071 171.491 C 159.271 171.747,159.166 172.261,158.824 172.714 C 158.498 173.145,158.226 173.891,158.219 174.373 C 158.212 174.856,157.749 176.232,157.190 177.431 C 156.632 178.631,156.064 180.189,155.930 180.894 C 155.790 181.629,154.830 183.101,153.683 184.342 C 152.583 185.533,151.682 186.745,151.682 187.036 C 151.682 187.326,151.533 187.564,151.351 187.564 C 151.169 187.564,150.582 187.977,150.047 188.481 C 148.494 189.944,144.234 192.864,143.651 192.864 C 143.359 192.864,143.119 193.037,143.119 193.247 C 143.119 193.457,142.798 193.635,142.406 193.642 C 133.059 193.816,128.586 192.894,123.688 189.785 C 122.663 189.134,120.685 183.660,120.233 180.224 C 119.547 175.008,119.074 173.767,117.584 173.276 C 116.827 173.026,116.208 172.551,116.208 172.221 C 116.208 171.891,115.942 171.107,115.617 170.479 C 115.036 169.354,115.044 169.339,116.127 169.488 C 117.167 169.632,117.177 169.618,116.310 169.237 C 115.805 169.015,115.392 168.533,115.392 168.165 C 115.392 167.739,115.171 167.582,114.781 167.732 C 114.444 167.861,114.169 167.789,114.169 167.571 C 114.169 167.354,114.536 167.176,114.985 167.176 C 115.433 167.176,115.800 166.993,115.800 166.769 C 115.800 166.544,116.121 166.364,116.514 166.367 C 117.112 166.372,117.131 166.435,116.628 166.753 C 116.298 166.961,116.163 167.267,116.328 167.433 C 116.963 168.067,117.599 166.797,117.205 165.683 C 116.725 164.325,115.566 163.790,115.904 165.083 C 116.070 165.717,115.945 165.953,115.445 165.953 C 114.824 165.953,114.623 164.274,114.947 161.786 C 114.968 161.625,115.290 161.611,115.663 161.754 C 116.119 161.929,116.245 161.858,116.047 161.537 C 115.885 161.275,115.957 161.060,116.208 161.060 C 116.459 161.060,116.538 160.856,116.384 160.607 C 116.230 160.357,116.356 159.993,116.665 159.798 C 117.082 159.533,116.991 159.440,116.310 159.435 C 115.805 159.432,115.392 159.591,115.392 159.789 C 115.392 159.987,115.029 160.245,114.584 160.361 C 113.896 160.541,113.838 160.457,114.191 159.797 C 114.454 159.305,115.086 159.001,115.916 158.966 C 116.916 158.924,117.004 158.868,116.286 158.731 C 115.569 158.593,115.449 158.425,115.784 158.022 C 116.114 157.624,115.967 157.326,115.189 156.816 C 114.352 156.268,114.234 155.993,114.567 155.371 C 114.855 154.833,114.840 154.556,114.520 154.449 C 113.849 154.226,114.504 152.497,115.260 152.497 C 115.650 152.497,115.799 152.729,115.653 153.109 C 115.328 153.955,115.942 153.875,116.766 152.964 C 117.811 151.809,117.208 150.788,115.564 150.930 C 114.821 150.994,114.081 150.914,113.919 150.752 C 113.758 150.591,114.217 150.459,114.941 150.459 C 115.769 150.459,116.156 150.298,115.987 150.024 C 115.839 149.785,116.058 149.332,116.473 149.017 C 117.393 148.320,116.893 148.244,115.671 148.894 C 114.866 149.323,114.835 149.304,115.340 148.691 C 115.648 148.318,116.133 148.012,116.418 148.012 C 116.703 148.012,117.050 147.717,117.188 147.355 C 117.380 146.856,117.268 146.764,116.722 146.972 C 116.172 147.181,116.115 147.133,116.482 146.763 C 116.745 146.499,116.862 146.027,116.742 145.715 C 116.601 145.348,116.972 144.991,117.793 144.705 C 119.135 144.237,119.659 142.205,118.552 141.758 C 118.222 141.625,118.270 141.541,118.692 141.520 C 119.326 141.489,120.285 139.139,120.285 137.617 C 120.285 136.307,122.856 132.344,125.053 130.268 C 126.243 129.143,127.217 128.014,127.217 127.758 C 127.217 127.503,127.551 127.381,127.959 127.488 C 128.368 127.594,130.065 126.965,131.731 126.089 C 137.335 123.143,143.573 123.655,148.093 127.432 C 150.457 129.408,155.670 135.841,155.943 137.119 C 156.097 137.840,156.666 140.783,157.208 143.658 C 158.313 149.519,158.424 149.815,159.368 149.412 C 160.366 148.986,161.989 149.168,162.356 149.747 C 162.597 150.126,162.680 150.100,162.685 149.643 C 162.689 149.291,163.598 148.663,164.832 148.162 C 166.135 147.632,167.030 147.001,167.121 146.548 C 167.202 146.138,167.518 145.423,167.824 144.957 C 168.884 143.338,168.913 104.760,167.854 103.702 C 167.402 103.249,163.684 102.874,163.447 103.256 C 163.257 103.563,162.543 103.566,161.021 103.265 C 158.051 102.678,157.662 102.897,157.902 105.023 C 158.058 106.402,157.979 106.717,157.525 106.543 C 157.210 106.422,156.601 106.641,156.172 107.030 C 155.473 107.662,155.164 107.681,153.231 107.211 C 152.042 106.922,150.752 106.706,150.362 106.732 C 149.972 106.757,149.422 106.457,149.139 106.065 C 147.702 104.076,139.122 102.466,132.926 103.023 M175.923 103.155 C 171.752 103.771,171.220 104.703,171.543 110.830 C 171.767 115.072,171.833 115.340,172.766 115.765 C 173.682 116.182,173.704 116.262,173.081 116.886 C 171.599 118.368,171.208 121.488,172.251 123.505 C 172.824 124.612,172.964 124.653,177.042 124.903 C 182.065 125.210,182.754 125.381,183.445 126.487 C 184.356 127.946,185.084 133.934,185.373 142.355 C 185.535 147.065,185.816 150.459,186.043 150.459 C 186.258 150.459,186.140 150.908,185.780 151.457 C 185.421 152.006,185.206 152.694,185.303 152.986 C 185.400 153.278,185.580 159.358,185.703 166.497 C 185.826 173.636,186.036 179.653,186.169 179.868 C 186.302 180.084,186.203 180.510,185.950 180.816 C 185.639 181.190,185.577 182.413,185.761 184.569 C 185.911 186.328,186.011 188.089,185.983 188.481 C 185.955 188.874,185.907 189.516,185.876 189.908 C 185.845 190.301,186.048 192.181,186.326 194.088 C 186.605 195.994,186.886 198.226,186.951 199.048 C 187.347 204.107,197.226 213.134,201.444 212.290 C 202.077 212.164,203.529 212.303,204.672 212.599 C 205.815 212.896,206.843 212.987,206.957 212.803 C 207.071 212.618,207.629 212.644,208.196 212.860 C 208.883 213.121,209.500 213.106,210.043 212.816 C 210.627 212.503,211.012 212.508,211.403 212.833 C 211.707 213.085,212.012 213.120,212.091 212.912 C 212.177 212.686,213.344 212.689,215.047 212.920 C 216.595 213.130,217.971 213.152,218.105 212.968 C 218.504 212.420,223.934 212.379,225.617 212.910 C 226.878 213.308,227.241 213.300,227.509 212.866 C 227.733 212.504,228.289 212.411,229.211 212.579 C 232.448 213.170,238.794 211.794,240.998 210.023 C 241.858 209.332,242.835 208.767,243.170 208.767 C 243.925 208.767,246.289 205.895,247.479 203.535 C 249.723 199.081,250.109 196.352,250.200 184.302 C 250.247 178.135,250.422 169.289,250.589 164.645 C 250.809 158.543,250.734 154.303,250.319 149.355 C 248.745 130.576,250.683 126.651,262.172 125.351 C 266.105 124.906,266.033 125.114,266.183 113.774 L 266.311 104.084 265.368 103.832 C 264.849 103.693,254.953 103.576,243.376 103.573 L 222.329 103.568 222.064 105.097 C 221.919 105.938,221.683 110.679,221.541 115.633 L 221.282 124.639 226.060 124.912 C 232.262 125.266,235.532 126.992,236.481 130.411 C 237.156 132.842,237.016 170.703,236.307 177.383 C 234.997 189.720,234.317 190.693,226.193 191.848 C 216.231 193.264,209.572 192.603,206.206 189.864 C 202.739 187.043,202.945 188.844,202.978 161.706 C 203.011 133.502,203.525 127.104,205.831 126.202 C 206.764 125.837,212.776 124.901,216.348 124.565 L 219.239 124.293 219.505 114.569 C 219.830 102.683,220.186 103.692,215.566 103.413 C 209.287 103.034,178.117 102.831,175.923 103.155 M36.290 103.394 C 35.729 103.487,33.986 103.769,32.416 104.020 C 1.808 108.926,-10.038 142.424,11.183 164.063 C 14.151 167.090,19.005 171.156,21.227 172.477 C 22.547 173.262,24.893 174.771,26.439 175.831 C 30.206 178.412,33.174 179.862,35.215 180.118 C 36.143 180.234,37.271 180.664,37.722 181.073 C 39.582 182.757,42.406 183.489,42.406 182.287 C 42.406 180.535,44.293 181.197,44.954 183.181 C 45.084 183.570,45.383 183.561,46.304 183.142 C 47.434 182.627,47.458 182.636,46.843 183.350 C 45.455 184.963,45.533 185.098,47.791 185.004 C 49.707 184.923,49.949 185.005,49.949 185.729 C 49.949 186.284,50.268 186.589,50.949 186.685 C 51.790 186.804,51.869 186.731,51.450 186.226 C 50.970 185.647,52.413 184.795,52.955 185.337 C 53.059 185.441,52.929 185.525,52.667 185.525 C 52.406 185.525,52.192 185.800,52.192 186.137 C 52.192 186.494,52.563 186.748,53.085 186.748 C 53.958 186.748,53.961 186.762,53.187 187.347 C 52.417 187.929,52.421 187.946,53.337 187.958 C 53.858 187.966,54.166 188.153,54.027 188.379 C 53.883 188.612,54.266 188.801,54.920 188.819 C 55.550 188.837,55.828 188.946,55.539 189.063 C 54.958 189.295,55.619 190.418,56.336 190.418 C 56.542 190.418,57.105 190.785,57.586 191.233 C 58.543 192.125,59.342 192.276,59.735 191.641 C 59.874 191.417,60.412 191.233,60.932 191.233 C 62.229 191.233,62.783 190.432,62.790 188.547 C 62.793 187.670,62.821 186.353,62.853 185.621 C 62.886 184.842,62.604 183.953,62.173 183.476 C 61.459 182.688,61.466 182.630,62.387 181.650 L 63.338 180.638 64.032 181.756 C 64.649 182.750,64.659 182.952,64.119 183.572 C 63.046 184.803,65.066 191.394,66.751 192.161 C 67.452 192.481,67.570 192.687,67.188 192.929 C 66.818 193.164,66.903 193.269,67.482 193.292 C 68.179 193.319,68.150 193.383,67.278 193.734 C 65.974 194.258,67.114 195.311,68.987 195.311 C 70.148 195.311,70.556 194.715,69.623 194.381 C 68.708 194.055,69.492 193.746,70.665 193.972 L 71.808 194.191 70.956 195.098 C 70.488 195.597,69.377 196.245,68.487 196.539 C 66.421 197.221,66.416 197.675,68.476 197.529 C 70.351 197.395,71.482 198.586,71.063 200.254 C 70.821 201.218,70.825 201.219,71.701 200.445 C 72.430 199.802,72.756 199.746,73.585 200.124 C 74.215 200.410,74.679 200.435,74.831 200.188 C 75.153 199.667,78.287 199.681,78.287 200.204 C 78.287 200.428,78.132 200.612,77.942 200.612 C 77.215 200.612,75.778 202.227,75.908 202.898 C 76.110 203.939,77.064 204.099,77.064 203.092 C 77.064 202.625,77.248 202.243,77.472 202.243 C 77.696 202.243,77.880 202.426,77.880 202.650 C 77.880 202.875,78.487 203.058,79.229 203.058 C 82.249 203.058,82.291 204.132,79.283 204.413 C 77.392 204.590,76.400 204.526,76.207 204.214 C 76.034 203.935,75.628 203.883,75.169 204.081 C 74.468 204.384,74.465 204.420,75.127 204.578 C 75.520 204.672,75.841 205.102,75.841 205.534 C 75.841 205.984,76.121 206.320,76.496 206.320 C 76.926 206.320,77.066 206.542,76.904 206.965 C 76.768 207.320,76.656 207.778,76.656 207.984 C 76.656 208.190,76.244 208.362,75.739 208.365 C 74.141 208.376,73.621 209.029,73.754 210.860 C 73.821 211.785,75.348 212.138,75.534 211.271 C 75.628 210.831,75.751 210.958,75.891 211.642 C 76.085 212.588,76.001 212.666,74.953 212.513 C 74.278 212.414,73.802 212.532,73.802 212.798 C 73.802 213.047,74.032 213.258,74.312 213.265 C 74.623 213.273,74.544 213.489,74.108 213.819 C 73.716 214.117,73.394 214.570,73.394 214.826 C 73.394 215.081,73.136 215.291,72.820 215.291 C 72.504 215.291,71.258 216.095,70.051 217.078 C 66.507 219.965,63.122 222.221,62.712 221.969 C 62.503 221.839,61.669 221.858,60.858 222.010 C 60.047 222.162,59.583 222.410,59.826 222.560 C 60.270 222.834,58.537 223.026,54.536 223.145 C 50.516 223.265,41.669 222.834,41.857 222.529 C 41.961 222.361,40.647 221.586,38.938 220.807 C 37.228 220.028,35.007 218.835,34.000 218.156 C 32.994 217.477,31.992 216.922,31.772 216.922 C 30.999 216.922,23.848 210.288,23.480 209.228 C 23.275 208.638,22.438 207.054,21.620 205.708 C 20.802 204.363,19.808 202.440,19.411 201.436 C 19.013 200.432,18.167 198.837,17.529 197.892 C 16.811 196.828,16.547 196.115,16.835 196.019 C 17.129 195.921,16.978 195.456,16.422 194.749 L 15.544 193.633 16.413 191.220 C 16.890 189.893,17.200 188.727,17.101 188.631 C 16.634 188.173,7.213 187.554,4.419 187.798 L 1.269 188.073 0.940 190.367 C 0.760 191.628,0.631 195.459,0.655 198.879 C 0.680 202.299,0.538 205.097,0.341 205.097 C -0.341 205.097,0.160 229.963,0.880 231.804 C 1.311 232.907,1.452 234.204,1.317 235.810 C 1.191 237.312,1.307 238.538,1.634 239.149 C 1.944 239.729,2.067 240.856,1.941 241.973 C 1.825 242.996,1.894 243.833,2.094 243.833 C 2.293 243.833,2.350 244.521,2.221 245.362 C 1.967 247.006,3.001 247.910,5.135 247.910 C 5.626 247.910,6.135 248.186,6.264 248.522 C 6.393 248.858,6.974 249.134,7.555 249.134 C 8.251 249.134,8.511 248.973,8.319 248.662 C 8.111 248.325,8.310 248.279,9.009 248.500 C 12.015 249.453,14.893 248.937,15.666 247.308 C 18.263 241.836,25.766 241.085,33.927 245.481 C 35.108 246.117,38.088 246.473,37.758 245.938 C 37.572 245.638,37.694 245.559,38.103 245.716 C 38.451 245.850,38.736 246.102,38.736 246.276 C 38.736 246.888,41.397 247.841,42.503 247.626 C 43.295 247.472,43.692 247.600,43.871 248.068 C 44.185 248.884,45.002 248.916,45.649 248.137 C 46.040 247.665,46.342 247.642,47.170 248.019 C 48.038 248.414,48.289 248.373,48.737 247.760 C 49.432 246.810,51.222 247.005,51.052 248.012 C 50.966 248.528,51.206 248.726,51.920 248.726 C 52.463 248.726,53.136 249.001,53.415 249.337 C 53.964 249.999,55.249 250.199,54.855 249.562 C 54.400 248.826,57.549 248.588,59.496 249.211 C 61.776 249.940,62.232 249.813,63.231 248.171 L 64.010 246.891 64.510 248.216 C 64.785 248.945,65.200 249.538,65.431 249.533 C 65.771 249.527,70.105 248.731,72.987 248.146 C 73.323 248.078,74.057 247.837,74.618 247.612 C 75.178 247.386,75.862 247.288,76.138 247.392 C 76.783 247.638,86.778 242.757,89.704 240.768 C 93.782 237.997,95.821 235.627,95.821 233.659 C 95.821 233.200,96.058 232.824,96.347 232.824 C 97.053 232.824,99.083 228.619,99.083 227.156 C 99.083 226.516,99.378 225.284,99.739 224.420 C 100.491 222.621,100.287 219.456,99.261 217.001 C 98.696 215.650,98.699 215.466,99.292 215.032 C 100.046 214.481,99.477 213.941,98.528 214.306 C 97.701 214.623,98.077 211.763,99.001 210.699 C 99.566 210.048,99.540 209.891,98.714 209.012 C 98.213 208.478,97.852 207.792,97.913 207.487 C 98.258 205.746,96.952 202.650,95.873 202.650 C 95.224 202.650,94.190 200.939,94.190 199.865 C 94.190 199.027,94.046 198.928,93.153 199.152 C 92.138 199.407,92.130 199.392,92.765 198.423 C 93.388 197.471,93.365 197.399,92.170 196.548 C 91.487 196.061,90.928 195.407,90.928 195.094 C 90.928 194.780,90.515 194.306,90.010 194.040 C 89.506 193.774,88.509 192.941,87.795 192.191 C 87.081 191.440,86.307 190.826,86.075 190.826 C 85.843 190.826,85.769 190.521,85.912 190.149 C 86.118 189.611,85.989 189.519,85.288 189.702 C 84.612 189.879,84.237 189.651,83.692 188.727 C 83.218 187.924,82.740 187.584,82.264 187.708 C 81.870 187.811,81.651 187.730,81.776 187.527 C 81.901 187.325,81.538 186.947,80.969 186.688 C 80.400 186.429,79.827 185.878,79.695 185.464 C 79.409 184.564,76.479 182.492,74.971 182.125 C 74.381 181.981,73.325 181.329,72.626 180.676 C 71.927 180.023,70.788 179.291,70.097 179.050 C 69.405 178.809,67.927 177.941,66.811 177.123 C 64.840 175.676,64.776 175.659,64.550 176.523 C 64.231 177.745,62.639 177.517,62.456 176.223 C 62.369 175.611,61.584 174.806,60.213 173.923 C 59.053 173.177,57.278 171.906,56.269 171.098 C 55.260 170.291,54.128 169.629,53.755 169.627 C 53.381 169.625,53.014 169.462,52.939 169.266 C 52.864 169.070,51.651 168.330,50.243 167.623 C 48.835 166.916,47.000 165.738,46.165 165.005 C 45.331 164.273,44.098 163.334,43.425 162.920 C 39.065 160.236,30.999 151.987,28.975 148.142 C 23.119 137.017,44.978 126.931,59.735 133.949 C 61.305 134.696,62.983 135.420,63.465 135.558 C 65.869 136.246,75.845 146.862,75.838 148.724 C 75.835 149.509,76.950 154.765,78.564 161.570 L 79.604 165.953 80.984 165.953 C 82.176 165.953,82.365 165.817,82.365 164.958 C 82.365 163.326,83.187 163.298,84.636 164.879 C 86.122 166.502,87.483 166.896,87.066 165.584 C 86.859 164.931,87.087 164.761,88.494 164.524 C 89.415 164.368,90.261 164.000,90.374 163.706 C 90.487 163.412,91.392 162.931,92.385 162.638 C 93.432 162.329,94.288 161.800,94.422 161.379 C 94.549 160.979,94.908 160.652,95.220 160.652 C 96.697 160.652,96.793 158.160,96.297 132.803 C 96.033 119.303,95.927 107.613,96.060 106.825 C 96.527 104.074,93.897 103.149,85.673 103.174 C 80.010 103.192,79.508 103.411,77.704 106.655 L 76.359 109.072 74.163 109.051 C 72.714 109.036,69.679 108.316,65.240 106.933 C 54.638 103.630,53.747 103.472,45.056 103.341 C 40.795 103.277,36.850 103.301,36.290 103.394 M276.588 103.511 C 274.083 103.654,271.953 103.863,271.854 103.976 C 270.207 105.837,268.906 124.999,270.143 129.165 C 270.865 131.594,270.172 131.356,279.284 132.313 C 285.992 133.017,286.372 133.213,287.896 136.737 C 289.601 140.681,289.820 142.192,289.415 147.217 C 288.894 153.683,289.112 157.088,290.124 158.271 C 290.695 158.939,290.726 159.056,290.231 158.673 C 289.172 157.854,288.978 159.286,289.237 166.036 C 289.359 169.242,289.433 172.691,289.400 173.700 C 289.367 174.709,289.339 176.395,289.338 177.445 C 289.337 178.521,289.170 179.252,288.956 179.120 C 288.730 178.981,288.684 179.448,288.843 180.268 C 288.990 181.029,289.120 182.661,289.132 183.894 C 289.145 185.127,289.167 187.329,289.183 188.787 C 289.198 190.245,289.201 191.893,289.189 192.451 C 289.177 193.008,289.332 193.773,289.534 194.151 C 289.781 194.612,289.735 194.905,289.395 195.043 C 289.005 195.202,289.016 195.338,289.445 195.638 C 289.914 195.967,289.914 196.057,289.445 196.215 C 288.977 196.372,288.976 196.507,289.441 197.071 C 289.864 197.583,289.893 198.030,289.565 198.972 C 289.305 199.718,289.288 200.204,289.522 200.204 C 290.060 200.204,290.008 202.796,289.458 203.345 C 289.149 203.654,289.137 204.025,289.418 204.526 C 289.680 204.995,289.689 205.620,289.444 206.265 C 289.179 206.961,289.207 207.362,289.534 207.564 C 289.863 207.767,289.793 207.975,289.303 208.249 C 288.502 208.697,289.220 210.398,290.210 210.398 C 291.028 210.398,290.804 211.505,289.940 211.731 C 289.360 211.882,289.081 212.451,288.867 213.919 C 287.895 220.569,285.382 222.180,275.837 222.269 C 267.806 222.344,268.674 220.797,268.428 235.474 C 268.232 247.182,268.340 248.318,269.650 248.318 C 270.148 248.318,271.929 248.705,273.607 249.178 C 276.498 249.993,277.209 250.022,287.258 249.740 C 293.089 249.576,300.841 249.419,304.485 249.390 C 308.130 249.361,311.111 249.200,311.111 249.032 C 311.111 248.863,311.305 248.726,311.543 248.726 C 311.780 248.726,311.852 248.925,311.701 249.169 C 311.375 249.696,315.772 249.258,316.948 248.646 C 317.455 248.382,317.895 248.430,318.349 248.799 C 318.916 249.261,318.974 249.240,318.755 248.653 C 318.531 248.055,318.651 248.023,319.719 248.395 C 321.209 248.914,321.163 248.961,321.517 246.585 C 321.714 245.261,321.661 244.648,321.351 244.648 C 320.682 244.648,320.799 242.791,321.504 242.206 C 321.838 241.928,322.010 241.537,321.885 241.336 C 321.761 241.135,321.681 239.367,321.708 237.407 C 321.735 235.447,321.751 233.384,321.745 232.824 C 321.705 229.089,321.793 227.440,322.088 226.411 C 322.953 223.396,322.820 223.288,317.635 222.802 C 311.181 222.198,307.849 220.552,307.849 217.967 C 307.849 217.602,307.549 216.621,307.183 215.787 C 306.467 214.160,306.022 210.398,306.545 210.398 C 307.001 210.398,306.905 208.209,306.434 207.871 C 306.182 207.691,306.210 207.099,306.512 206.240 C 306.823 205.357,306.868 204.271,306.643 203.086 C 306.455 202.092,306.393 201.037,306.507 200.741 C 306.620 200.446,306.556 200.204,306.364 200.204 C 305.727 200.204,305.961 195.558,306.626 195.013 C 307.125 194.603,307.138 194.445,306.698 194.155 C 306.325 193.909,306.243 193.353,306.430 192.353 C 306.994 189.349,307.121 188.045,307.302 183.384 C 307.428 180.167,307.348 178.593,307.058 178.593 C 306.820 178.593,306.626 178.846,306.626 179.155 C 306.626 179.464,306.351 179.945,306.014 180.224 C 305.513 180.640,305.403 180.612,305.403 180.070 C 305.403 179.706,305.112 179.409,304.757 179.409 C 304.402 179.409,304.191 179.179,304.289 178.899 C 304.386 178.619,304.860 178.404,305.342 178.422 C 305.824 178.440,306.218 178.302,306.218 178.116 C 306.218 177.312,307.253 177.930,309.504 180.076 C 311.376 181.862,311.865 182.571,311.694 183.252 C 311.255 185.001,320.462 199.715,321.327 198.647 C 321.866 197.981,322.129 197.893,322.436 198.275 C 323.317 199.376,324.593 202.326,325.294 204.886 C 325.701 206.372,326.181 207.532,326.361 207.464 C 326.540 207.395,327.040 208.028,327.472 208.869 C 328.817 211.492,329.898 210.984,329.209 208.053 C 328.905 206.764,328.660 204.699,328.664 203.466 L 328.670 201.223 329.575 202.421 C 330.265 203.335,332.722 208.840,332.722 209.473 C 332.722 209.533,332.446 209.582,332.110 209.582 C 331.285 209.582,331.354 210.651,332.314 212.766 C 332.752 213.732,333.307 215.251,333.547 216.142 C 333.807 217.108,334.158 217.653,334.417 217.493 C 334.656 217.346,335.273 217.753,335.788 218.399 C 337.103 220.043,337.531 219.293,336.495 217.160 C 336.012 216.166,335.729 214.996,335.856 214.513 C 336.021 213.881,335.927 213.707,335.506 213.868 C 335.000 214.063,332.829 209.339,333.238 208.930 C 333.303 208.864,334.333 210.544,335.524 212.662 C 336.716 214.780,337.825 216.595,337.988 216.696 C 338.151 216.797,339.831 213.633,341.721 209.665 C 345.183 202.397,348.048 197.048,349.154 195.789 C 349.483 195.414,350.360 194.006,351.104 192.661 C 351.847 191.315,352.568 190.122,352.705 190.010 C 353.639 189.245,356.772 183.293,356.572 182.663 C 356.334 181.913,358.369 179.488,359.943 178.645 C 360.608 178.290,360.653 178.491,360.515 181.212 C 360.428 182.944,360.612 185.162,360.961 186.578 C 361.426 188.464,361.535 191.572,361.460 200.815 C 361.301 220.382,360.840 221.292,350.536 222.372 L 345.973 222.850 346.022 225.085 C 346.048 226.314,346.197 229.704,346.353 232.620 C 346.811 241.210,346.855 244.794,346.516 245.771 C 346.257 246.514,346.549 247.864,347.223 249.043 C 347.258 249.105,347.772 248.972,348.363 248.747 C 349.248 248.411,349.439 248.454,349.439 248.990 C 349.439 249.458,349.582 249.526,349.949 249.230 C 350.433 248.839,355.154 249.245,355.967 249.747 C 356.151 249.861,356.395 249.724,356.509 249.442 C 356.672 249.039,356.793 249.037,357.072 249.429 C 357.341 249.809,358.421 249.843,361.567 249.570 C 363.865 249.370,366.391 249.364,367.244 249.557 C 369.980 250.174,395.443 249.781,397.550 249.089 C 399.922 248.311,400.101 247.263,399.913 235.270 C 399.710 222.343,399.556 222.096,391.437 221.703 C 388.208 221.547,385.898 221.196,384.016 220.575 L 381.284 219.674 380.448 217.199 C 379.989 215.838,379.613 214.301,379.613 213.784 C 379.613 213.267,379.409 212.844,379.161 212.844 C 378.885 212.844,378.806 212.456,378.958 211.850 C 379.096 211.303,379.024 210.741,378.799 210.602 C 378.574 210.463,378.389 210.544,378.389 210.781 C 378.389 211.019,378.206 211.213,377.982 211.213 C 377.757 211.213,377.574 210.866,377.574 210.443 C 377.574 209.960,377.840 209.694,378.287 209.729 C 379.231 209.804,379.510 208.043,378.610 207.697 C 378.023 207.472,378.028 207.395,378.661 206.933 C 379.321 206.450,379.322 206.356,378.677 205.371 C 378.259 204.733,378.148 204.227,378.394 204.075 C 379.086 203.647,378.836 201.725,377.968 200.801 C 377.130 199.909,377.388 197.757,378.333 197.757 C 378.706 197.757,378.570 187.383,378.173 185.627 C 378.027 184.978,378.153 184.709,378.604 184.709 C 379.118 184.709,379.189 184.412,378.970 183.180 C 378.617 181.197,378.616 181.412,378.980 180.117 C 379.184 179.390,379.118 178.775,378.793 178.384 C 378.393 177.903,378.394 177.651,378.797 177.166 C 379.148 176.744,379.163 176.555,378.847 176.555 C 378.595 176.555,378.389 176.279,378.389 175.943 C 378.389 175.607,378.573 175.331,378.797 175.331 C 379.704 175.331,379.202 173.700,378.287 173.674 L 377.370 173.649 378.330 173.264 C 378.972 173.007,379.208 172.667,379.044 172.237 C 378.908 171.884,378.797 171.251,378.797 170.831 C 378.797 170.281,378.398 169.993,377.370 169.800 C 375.273 169.406,375.336 167.878,377.472 167.350 C 379.200 166.923,380.036 164.208,378.608 163.660 C 378.116 163.471,378.070 163.279,378.416 162.862 C 378.756 162.453,378.720 162.008,378.273 161.113 C 377.741 160.046,377.745 159.841,378.308 159.278 C 378.816 158.769,378.851 158.445,378.483 157.636 C 378.230 157.082,378.174 156.571,378.357 156.500 C 379.326 156.126,379.090 149.656,378.118 149.901 C 376.845 150.220,376.813 149.036,378.084 148.628 C 378.828 148.389,378.872 148.299,378.317 148.149 C 377.784 148.005,377.683 147.653,377.861 146.561 C 378.145 144.807,377.524 144.733,376.351 146.381 C 375.872 147.054,375.125 147.604,374.692 147.604 C 373.615 147.604,373.704 147.006,374.924 146.046 C 375.484 145.605,375.943 145.061,375.943 144.837 C 375.943 144.174,377.273 143.863,377.682 144.431 C 377.947 144.799,377.987 144.733,377.816 144.207 C 377.683 143.796,377.574 143.305,377.574 143.116 C 377.574 142.926,377.345 142.690,377.064 142.590 C 376.784 142.491,377.030 142.467,377.611 142.537 C 378.559 142.652,378.672 142.522,378.720 141.261 C 378.749 140.489,378.588 139.857,378.363 139.857 C 378.099 139.857,378.110 139.564,378.394 139.033 C 378.636 138.580,378.735 138.049,378.614 137.852 C 378.232 137.234,381.994 133.437,383.905 132.512 C 385.378 131.799,386.844 131.568,391.443 131.322 C 394.583 131.154,397.219 130.942,397.301 130.850 C 400.067 127.752,398.995 103.568,396.092 103.568 C 395.748 103.568,395.567 103.730,395.690 103.929 C 396.239 104.817,394.698 105.324,393.831 104.541 L 392.978 103.772 394.145 103.514 C 395.662 103.179,354.019 103.080,352.345 103.415 L 351.071 103.670 351.116 117.046 L 351.160 130.423 352.848 130.689 C 357.026 131.348,357.466 131.625,358.428 134.199 L 359.320 136.583 351.933 149.593 C 343.863 163.807,344.155 163.206,345.464 162.899 C 345.968 162.780,346.630 162.845,346.933 163.043 C 347.784 163.598,346.760 165.278,345.735 165.010 C 345.267 164.888,344.954 165.015,344.954 165.326 C 344.954 165.989,341.754 170.031,341.229 170.031 C 340.500 170.031,338.017 173.064,336.139 176.249 C 333.697 180.388,333.960 180.416,331.255 175.740 C 329.957 173.497,328.754 171.662,328.580 171.662 C 328.093 171.662,327.413 173.147,327.741 173.496 C 327.901 173.667,327.627 173.560,327.132 173.258 C 326.308 172.756,326.285 172.649,326.868 172.005 C 328.112 170.630,327.182 170.511,324.424 171.690 C 322.889 172.347,321.274 172.885,320.836 172.885 C 320.399 172.885,319.465 173.183,318.761 173.547 C 317.775 174.057,317.314 174.103,316.748 173.750 C 316.345 173.499,315.727 173.293,315.374 173.293 C 315.021 173.293,314.853 173.098,314.999 172.861 C 315.152 172.613,315.771 172.540,316.451 172.689 C 317.291 172.874,317.640 172.792,317.652 172.408 C 317.678 171.612,320.318 170.062,321.238 170.303 C 321.673 170.416,322.147 170.318,322.291 170.084 C 322.436 169.850,322.821 169.761,323.147 169.886 C 323.530 170.033,323.886 169.729,324.153 169.026 C 324.706 167.573,324.757 167.657,323.135 167.352 C 322.348 167.205,321.607 166.928,321.490 166.738 C 321.372 166.548,320.812 166.568,320.244 166.784 C 317.909 167.672,317.106 167.053,316.757 164.093 C 316.551 162.345,318.598 162.530,320.231 164.406 L 321.401 165.749 321.141 164.628 C 320.896 163.568,320.960 163.507,322.316 163.507 C 324.199 163.507,324.756 164.698,316.208 150.459 C 312.059 143.548,308.665 137.705,308.665 137.475 C 308.665 137.245,309.135 135.972,309.711 134.645 L 310.757 132.233 313.758 131.486 L 316.760 130.738 316.791 117.357 L 316.821 103.976 314.938 103.976 C 313.255 103.976,312.894 104.152,311.532 105.643 C 310.407 106.873,309.752 107.274,309.030 107.172 C 308.490 107.095,307.780 107.333,307.441 107.703 C 306.340 108.907,304.214 109.013,303.785 107.884 C 303.582 107.351,303.175 106.815,302.881 106.692 C 302.475 106.524,302.519 106.359,303.058 106.018 C 303.451 105.769,303.772 105.116,303.772 104.567 L 303.772 103.568 295.474 103.568 C 290.911 103.568,285.819 103.496,284.159 103.409 C 282.500 103.322,279.092 103.368,276.588 103.511 M369.798 107.951 C 369.773 108.930,369.728 108.969,369.441 108.257 C 369.261 107.808,369.193 107.304,369.290 107.136 C 369.636 106.539,369.826 106.845,369.798 107.951 M161.221 147.943 C 161.469 148.343,159.980 148.291,159.573 147.885 C 159.419 147.731,159.680 147.604,160.153 147.604 C 160.625 147.604,161.106 147.757,161.221 147.943 M373.551 151.580 C 373.341 151.972,373.165 152.472,373.159 152.691 C 373.154 152.910,372.967 153.150,372.744 153.224 C 372.213 153.401,372.671 151.574,373.257 151.179 C 373.921 150.730,373.970 150.797,373.551 151.580 M111.919 153.301 C 112.054 153.519,111.699 153.813,111.131 153.956 C 110.562 154.099,110.186 154.358,110.294 154.533 C 110.402 154.708,110.126 154.947,109.680 155.063 C 109.234 155.180,108.767 155.109,108.641 154.906 C 108.515 154.702,108.692 154.536,109.034 154.536 C 109.376 154.536,109.852 154.169,110.092 153.721 C 110.554 152.858,111.510 152.638,111.919 153.301 M110.907 163.714 C 110.907 164.150,109.659 164.172,109.302 163.742 C 108.955 163.323,109.078 163.252,109.884 163.406 C 110.447 163.514,110.907 163.652,110.907 163.714 M296.615 166.361 C 298.780 170.622,297.464 169.900,294.955 165.451 L 293.514 162.895 294.806 164.118 C 295.516 164.791,296.330 165.800,296.615 166.361 M111.900 164.687 C 112.024 164.888,111.837 165.163,111.483 165.299 C 110.574 165.647,110.499 165.620,110.499 164.934 C 110.499 164.272,111.532 164.091,111.900 164.687 M317.227 164.934 C 317.227 165.270,317.503 165.545,317.839 165.545 C 318.175 165.545,318.451 165.270,318.451 164.934 C 318.451 164.597,318.175 164.322,317.839 164.322 C 317.503 164.322,317.227 164.597,317.227 164.934 M88.991 165.340 C 88.285 166.142,88.350 166.361,89.297 166.361 C 89.840 166.361,90.112 166.089,90.112 165.545 C 90.112 164.596,89.710 164.522,88.991 165.340 M354.740 166.017 C 354.740 166.222,354.368 166.190,353.913 165.947 C 353.458 165.704,353.199 165.321,353.338 165.097 C 353.617 164.646,354.740 165.383,354.740 166.017 M314.985 165.953 C 315.123 166.177,314.966 166.361,314.635 166.361 C 314.304 166.361,313.951 166.590,313.851 166.871 C 313.751 167.151,313.526 167.247,313.351 167.084 C 313.011 166.767,313.843 165.545,314.399 165.545 C 314.583 165.545,314.846 165.729,314.985 165.953 M360.286 168.872 C 359.546 169.929,359.408 169.582,360.074 168.338 C 360.316 167.885,360.610 167.610,360.727 167.727 C 360.844 167.844,360.646 168.359,360.286 168.872 M116.412 170.846 C 116.273 171.070,116.247 171.254,116.354 171.254 C 116.461 171.254,116.841 171.366,117.199 171.503 C 117.674 171.686,117.781 171.576,117.596 171.095 C 117.311 170.351,116.786 170.241,116.412 170.846 M313.741 175.221 C 314.033 175.981,313.815 175.864,312.711 174.666 C 311.768 173.643,311.765 173.619,312.632 174.148 C 313.133 174.453,313.631 174.935,313.741 175.221 M44.037 174.763 C 44.037 174.851,43.532 174.921,42.915 174.917 C 42.099 174.913,41.951 174.812,42.369 174.547 C 42.888 174.219,44.037 174.367,44.037 174.763 M46.694 174.889 C 45.948 175.180,44.444 175.035,44.444 174.672 C 44.444 174.586,45.133 174.529,45.973 174.544 C 47.138 174.566,47.310 174.648,46.694 174.889 M363.303 178.104 C 363.303 178.528,362.419 179.409,361.995 179.409 C 361.813 179.409,361.894 179.042,362.174 178.593 C 362.689 177.769,363.303 177.503,363.303 178.104 M302.956 179.977 C 302.956 180.589,301.966 181.137,301.572 180.743 C 301.285 180.456,302.090 179.409,302.598 179.409 C 302.795 179.409,302.956 179.664,302.956 179.977 M300.917 180.550 C 300.917 181.224,300.004 181.753,299.202 181.544 C 298.400 181.334,298.405 181.307,299.338 180.790 C 300.466 180.164,300.917 180.096,300.917 180.550 M305.149 191.314 C 305.023 191.518,304.668 191.469,304.347 191.203 C 303.820 190.766,303.599 190.958,303.723 191.743 C 303.797 192.207,303.041 192.109,302.736 191.614 C 302.588 191.375,302.806 190.920,303.221 190.602 C 303.858 190.116,303.884 189.966,303.390 189.641 C 302.907 189.324,302.897 189.145,303.334 188.619 C 303.908 187.928,305.646 190.509,305.149 191.314 M70.866 190.907 C 71.612 191.653,71.451 192.745,70.560 192.977 C 69.661 193.213,69.381 192.716,69.642 191.351 C 69.842 190.303,70.150 190.191,70.866 190.907 M374.532 194.190 C 374.484 196.218,373.118 196.798,372.351 195.115 C 371.924 194.178,371.986 194.077,373.203 193.725 C 373.925 193.516,374.524 193.329,374.535 193.309 C 374.545 193.289,374.544 193.685,374.532 194.190 M303.941 195.366 C 303.750 195.676,303.538 195.608,303.285 195.156 C 303.080 194.789,303.039 194.283,303.194 194.032 C 303.386 193.723,303.597 193.790,303.850 194.242 C 304.056 194.609,304.096 195.115,303.941 195.366 M65.378 196.355 C 65.021 197.283,65.577 197.594,66.300 196.871 C 66.873 196.299,66.871 196.214,66.275 195.985 C 65.879 195.833,65.521 195.981,65.378 196.355 M326.969 197.452 C 327.864 199.845,327.958 200.481,327.280 199.559 C 326.590 198.622,325.961 196.534,326.368 196.534 C 326.510 196.534,326.780 196.947,326.969 197.452 M327.172 202.446 C 327.372 203.340,327.334 203.505,327.032 203.058 C 326.804 202.722,326.615 202.095,326.612 201.665 C 326.603 200.622,326.837 200.947,327.172 202.446 M322.547 202.278 C 322.797 202.745,323.101 203.028,323.223 202.907 C 323.559 202.571,323.021 201.427,322.526 201.427 C 322.225 201.427,322.231 201.688,322.547 202.278 M328.389 206.371 C 328.834 208.596,328.634 209.015,327.829 207.543 C 326.893 205.835,326.817 205.097,327.574 205.097 C 327.882 205.097,328.249 205.670,328.389 206.371 M79.409 208.558 C 79.913 208.703,80.326 208.993,80.326 209.202 C 80.326 209.802,79.639 209.651,78.195 208.735 C 76.928 207.931,77.126 207.902,79.409 208.558 M105.279 219.878 C 105.408 222.107,107.098 223.115,108.607 221.862 C 108.990 221.544,109.071 221.766,108.949 222.803 C 108.793 224.141,108.775 224.152,107.655 223.593 C 106.403 222.968,105.199 223.217,105.199 224.101 C 105.199 224.584,116.930 224.669,184.098 224.669 L 262.997 224.669 262.997 222.459 C 262.997 221.103,262.721 219.766,262.283 218.998 L 261.570 217.746 183.363 217.742 L 105.156 217.738 105.279 219.878 M211.027 223.067 C 211.596 223.988,210.896 223.798,209.957 222.777 C 209.016 221.754,209.012 221.725,209.865 222.169 C 210.357 222.425,210.880 222.829,211.027 223.067 M70.133 232.526 C 70.492 232.663,70.287 232.773,69.636 232.791 C 68.785 232.816,68.585 232.673,68.775 232.178 C 68.911 231.823,69.135 231.703,69.272 231.913 C 69.409 232.122,69.796 232.398,70.133 232.526 " stroke="none" fill="#fff"></path></svg>